<svg width="136" height="40" viewBox="0 0 136 40" fill="none" xmlns="http://www.w3.org/2000/svg">
<rect width="135.707" height="40" rx="5" fill="black"/>
<path fill-rule="evenodd" clip-rule="evenodd" d="M5.02618 0.000488281H130.681C133.456 0.000488281 135.707 2.23906 135.707 5.00049V35.0005C135.707 37.7619 133.456 40.0005 130.681 40.0005H5.02618C2.2503 40.0005 0 37.7619 0 35.0005V5.00049C0 2.23906 2.2503 0.000488281 5.02618 0.000488281ZM134.903 4.99981C134.903 2.68021 133.012 0.799805 130.681 0.799805H5.02619C2.69445 0.799805 0.804199 2.68021 0.804199 4.99981V34.9998C0.804199 37.3194 2.69445 39.1998 5.02619 39.1998H130.681C133.012 39.1998 134.903 37.3194 134.903 34.9998V4.99981Z" fill="#A6A6A6"/>
<path d="M47.6681 10.2398C47.7014 10.9809 47.4291 11.7033 46.9142 12.2398C46.3366 12.833 45.5322 13.1531 44.7027 13.1198C43.8689 13.1383 43.0647 12.8125 42.4811 12.2198C41.2628 10.9801 41.2628 8.99949 42.4811 7.75981C43.3968 6.86972 44.7601 6.61346 45.9391 7.1098C46.3016 7.25804 46.6249 7.48729 46.884 7.77981L46.3512 8.30981C45.9465 7.82476 45.3355 7.55793 44.7027 7.58981C43.6187 7.59727 42.6728 8.32303 42.3902 9.3641C42.1076 10.4052 42.5577 11.5059 43.4906 12.0552C44.4235 12.6044 45.61 12.4672 46.3915 11.7198C46.6985 11.3849 46.8765 10.9528 46.8941 10.4998H44.7027V9.77982H47.6279C47.6508 9.93218 47.6642 10.0858 47.6681 10.2398Z" fill="white" stroke="white" stroke-width="0.2"/>
<path d="M52.2722 7.74H49.558V9.64H52.0309V10.36H49.558V12.26H52.2722V13H48.7739V7H52.2722V7.74Z" fill="white" stroke="white" stroke-width="0.2"/>
<path d="M55.5693 13H54.7953V7.74H53.1064V7H57.2983V7.74H55.5693V13Z" fill="white" stroke="white" stroke-width="0.2"/>
<path d="M60.2539 13V7H61.0279V13H60.2539Z" fill="white" stroke="white" stroke-width="0.2"/>
<path d="M64.4657 13H63.6917V7.74H62.0029V7H66.1445V7.74H64.4657V13Z" fill="white" stroke="white" stroke-width="0.2"/>
<path fill-rule="evenodd" clip-rule="evenodd" d="M71.7839 13.1321C72.6135 13.1321 73.4091 12.8041 73.9954 12.2203C74.5864 11.6339 74.9067 10.8302 74.8801 10.0003C74.8984 9.17184 74.5794 8.37118 73.9954 7.78027C73.416 7.18648 72.6157 6.85718 71.7839 6.87027C70.9505 6.84857 70.1469 7.17924 69.5724 7.78027C68.3928 9.02768 68.3928 10.9729 69.5724 12.2203C70.1588 12.8041 70.9544 13.1321 71.7839 13.1321ZM71.784 12.4019C71.1682 12.4019 70.578 12.1564 70.1455 11.7203C69.2461 10.7482 69.2461 9.25246 70.1455 8.28029C70.578 7.84422 71.1682 7.59875 71.784 7.59875C72.3998 7.59875 72.99 7.84422 73.4225 8.28029C74.3219 9.25246 74.3219 10.7482 73.4225 11.7203C72.99 12.1564 72.3998 12.4019 71.784 12.4019Z" fill="white"/>
<path d="M73.9954 12.2203L73.925 12.1493L73.9249 12.1494L73.9954 12.2203ZM74.8801 10.0003L74.7799 9.99805L74.7801 10.0035L74.8801 10.0003ZM73.9954 7.78027L73.9239 7.85011L73.9243 7.85056L73.9954 7.78027ZM71.7839 6.87027L71.7813 6.97032L71.7855 6.97026L71.7839 6.87027ZM69.5724 7.78027L69.5001 7.71117L69.4998 7.71156L69.5724 7.78027ZM69.5724 12.2203L69.4997 12.289L69.5019 12.2911L69.5724 12.2203ZM70.1455 11.7203L70.072 11.7883L70.0745 11.7907L70.1455 11.7203ZM70.1455 8.28029L70.0744 8.20982L70.072 8.21238L70.1455 8.28029ZM73.4225 8.28029L73.496 8.21234L73.4935 8.20986L73.4225 8.28029ZM73.4225 11.7203L73.4936 11.7908L73.4959 11.7882L73.4225 11.7203ZM73.9249 12.1494C73.3573 12.7145 72.5872 13.0321 71.7839 13.0321V13.2321C72.6399 13.2321 73.4608 12.8936 74.066 12.2911L73.9249 12.1494ZM74.7801 10.0035C74.8059 10.8055 74.4963 11.5825 73.925 12.1493L74.0659 12.2913C74.6765 11.6854 75.0076 10.8548 74.98 9.99706L74.7801 10.0035ZM73.9243 7.85056C74.4893 8.42226 74.7979 9.19678 74.7801 9.99806L74.98 10.0025C74.999 9.1469 74.6695 8.3201 74.0666 7.70998L73.9243 7.85056ZM71.7855 6.97026C72.5899 6.9576 73.3637 7.27606 73.9239 7.85011L74.067 7.71043C73.4683 7.0969 72.6416 6.75676 71.7824 6.77028L71.7855 6.97026ZM69.6447 7.84937C70.1996 7.2688 70.976 6.94926 71.7813 6.97023L71.7865 6.7703C70.925 6.74787 70.0942 7.08969 69.5001 7.71117L69.6447 7.84937ZM69.6451 12.1516C68.502 10.9427 68.502 9.05783 69.6451 7.84898L69.4998 7.71156C68.2837 8.99752 68.2837 11.003 69.4998 12.289L69.6451 12.1516ZM71.7839 13.0321C70.9807 13.0321 70.2106 12.7145 69.643 12.1494L69.5019 12.2911C70.107 12.8936 70.928 13.2321 71.7839 13.2321V13.0321ZM70.0745 11.7907C70.5258 12.2458 71.1416 12.5019 71.784 12.5019V12.3019C71.1947 12.3019 70.6302 12.067 70.2164 11.6499L70.0745 11.7907ZM70.072 8.21238C69.1372 9.22288 69.1372 10.7777 70.072 11.7882L70.2189 11.6524C69.355 10.7186 69.355 9.28204 70.2189 8.34819L70.072 8.21238ZM71.784 7.49875C71.1416 7.49875 70.5258 7.75481 70.0745 8.20986L70.2164 8.35071C70.6302 7.93363 71.1947 7.69875 71.784 7.69875V7.49875ZM73.4935 8.20986C73.0421 7.75481 72.4264 7.49875 71.784 7.49875V7.69875C72.3732 7.69875 72.9378 7.93363 73.3515 8.35071L73.4935 8.20986ZM73.4959 11.7882C74.4307 10.7777 74.4307 9.22288 73.4959 8.21238L73.3491 8.34819C74.213 9.28204 74.213 10.7186 73.3491 11.6524L73.4959 11.7882ZM71.784 12.5019C72.4264 12.5019 73.0421 12.2458 73.4935 11.7907L73.3515 11.6499C72.9378 12.067 72.3732 12.3019 71.784 12.3019V12.5019Z" fill="white"/>
<path d="M75.9756 13V7H76.9105L79.8458 11.67V10.51V7H80.6198V13H79.8156L76.7496 8.11V9.26V13H75.9756Z" fill="white" stroke="white" stroke-width="0.2"/>
<path fill-rule="evenodd" clip-rule="evenodd" d="M47.9899 23.0596V24.8596H52.3325C52.2644 25.7074 51.9102 26.5074 51.3273 27.1296C50.4463 28.0225 49.2263 28.5021 47.9698 28.4496C45.305 28.4496 43.1447 26.3006 43.1447 23.6496C43.1447 20.9986 45.305 18.8496 47.9698 18.8496C49.1966 18.8314 50.3812 19.2949 51.267 20.1396L52.5436 18.8696C51.3333 17.6787 49.692 17.0227 47.9899 17.0496C45.5562 16.9554 43.2657 18.1933 42.0207 20.2756C40.7757 22.358 40.7757 24.9512 42.0207 27.0336C43.2657 29.116 45.5562 30.3538 47.9899 30.2596C49.7292 30.3287 51.4153 29.6556 52.624 28.4096C53.6796 27.256 54.2421 25.7388 54.1922 24.1796C54.1958 23.8043 54.1655 23.4295 54.1017 23.0596H47.9899ZM59.1282 21.7499C56.7632 21.7554 54.8504 23.6672 54.856 26.0199C54.8615 28.3726 56.7833 30.2754 59.1483 30.2699C61.5134 30.2644 63.4261 28.3526 63.4206 25.9999C63.4371 24.8643 62.9896 23.7706 62.1804 22.9694C61.3712 22.1682 60.2697 21.7281 59.1282 21.7499ZM64.2246 26.0199C64.2191 23.6672 66.1318 21.7554 68.4968 21.7499C69.6383 21.7281 70.7398 22.1682 71.549 22.9694C72.3582 23.7706 72.8057 24.8643 72.7892 25.9999C72.7947 28.3526 70.882 30.2644 68.5169 30.2699C66.1519 30.2754 64.2302 28.3726 64.2246 26.0199ZM65.9756 27.1187C66.4346 28.0745 67.4344 28.6541 68.4967 28.5802C69.1634 28.5648 69.7957 28.2822 70.25 27.7964C70.7042 27.3106 70.942 26.6629 70.9093 26.0002C70.9067 24.9409 70.2534 23.9907 69.2619 23.6043C68.2703 23.2178 67.1421 23.4736 66.4168 24.2492C65.6915 25.0249 65.5165 26.1628 65.9756 27.1187ZM56.6069 27.1187C57.0659 28.0745 58.0657 28.6541 59.128 28.5802C59.7948 28.5648 60.427 28.2822 60.8813 27.7964C61.3356 27.3106 61.5733 26.6629 61.5406 26.0002C61.538 24.9409 60.8847 23.9907 59.8932 23.6043C58.9017 23.2178 57.7735 23.4736 57.0481 24.2492C56.3228 25.0249 56.1479 26.1628 56.6069 27.1187ZM89.8782 21.75C91.5448 21.8111 93.0005 22.8892 93.5373 24.46L93.7484 24.9L88.0285 27.25C88.3848 28.0642 89.2075 28.5767 90.0993 28.5401C90.9587 28.5484 91.7581 28.1031 92.2003 27.37L93.6579 28.3701C92.6196 29.9348 90.6697 30.6329 88.8672 30.0852C87.0646 29.5376 85.8396 27.8749 85.8572 26C85.7878 24.8966 86.1805 23.8137 86.9423 23.0085C87.704 22.2034 88.7668 21.7478 89.8782 21.75ZM87.7067 25.8799C87.6655 25.2524 87.8799 24.6348 88.3017 24.1664C88.7234 23.698 89.3169 23.4181 89.9483 23.3899C90.6105 23.3497 91.2325 23.7083 91.5266 24.2999L87.7067 25.8799ZM84.9423 30.0001H83.0625V17.5001H84.9423V30.0001ZM79.9869 22.7H79.9165C79.3483 22.0562 78.526 21.691 77.6648 21.7C75.383 21.8101 73.5898 23.6825 73.5898 25.955C73.5898 28.2275 75.383 30.0999 77.6648 30.21C78.5277 30.2272 79.3533 29.8606 79.9165 29.21H79.9869V29.82C79.9869 31.45 79.1123 32.32 77.705 32.32C76.7435 32.299 75.8899 31.7026 75.5437 30.81L73.9152 31.48C74.5316 33.02 76.0389 34.0223 77.705 34C79.9065 34 81.726 32.71 81.726 29.57V22H79.9869V22.7ZM75.3931 26.0053C75.3931 27.3679 76.4581 28.4955 77.8251 28.5803C78.4785 28.5553 79.093 28.2655 79.526 27.7781C79.9589 27.2907 80.1725 26.6484 80.1171 26.0003C80.1667 25.3546 79.9508 24.7164 79.5187 24.232C79.0867 23.7475 78.4755 23.4582 77.8251 23.4303C76.4581 23.5151 75.3931 24.6427 75.3931 26.0053ZM102.343 17.4999H97.8394V29.9999H99.7191V25.2599H102.343C103.803 25.3643 105.2 24.6484 105.962 23.4049C106.724 22.1613 106.724 20.5985 105.962 19.3549C105.2 18.1114 103.803 17.3955 102.343 17.4999ZM99.7195 23.4998H102.343L102.383 23.5198C103.152 23.5198 103.862 23.1119 104.246 22.4498C104.631 21.7876 104.631 20.9719 104.246 20.3098C103.862 19.6476 103.152 19.2397 102.383 19.2397H99.7195V23.4998ZM113.943 21.7099C112.544 21.6241 111.228 22.3751 110.596 23.6199L112.254 24.3099C112.597 23.6958 113.27 23.3394 113.973 23.3999C114.455 23.3439 114.94 23.4829 115.318 23.7856C115.696 24.0883 115.936 24.5295 115.984 25.0099V25.1299C115.379 24.8138 114.707 24.6491 114.024 24.6499C112.234 24.6499 110.405 25.6499 110.405 27.4699C110.441 28.2515 110.793 28.9852 111.382 29.5035C111.972 30.0218 112.747 30.2803 113.531 30.2199C114.491 30.2727 115.406 29.8064 115.924 28.9999H115.984V29.9999H117.793V25.1899C117.793 22.9999 116.125 21.7299 113.983 21.7299L113.943 21.7099ZM112.245 27.4998C112.245 28.2498 113.099 28.5598 113.712 28.5598L113.752 28.5798C114.889 28.5573 115.833 27.7029 115.964 26.5798C115.442 26.2902 114.852 26.1452 114.255 26.1598C113.31 26.1598 112.245 26.4998 112.245 27.4998ZM124.388 21.9996L122.237 27.4197H122.177L119.945 21.9996H117.935L121.282 29.5797L119.372 33.7897H121.332L126.479 21.9996H124.388ZM109.369 30H107.5V17.5H109.369V30Z" fill="white"/>
<path d="M10.4949 7.54021C10.1636 7.92983 9.99457 8.43068 10.0224 8.94021V31.0602C9.98819 31.5705 10.158 32.0737 10.4949 32.4602L10.5652 32.5402L23.0201 20.1502V19.8502L10.5652 7.47021L10.4949 7.54021Z" fill="url(#paint0_linear)"/>
<path d="M27.1415 24.2803L23.02 20.1502V19.8502L27.1415 15.7202L27.232 15.7802L32.1677 18.5602C33.575 19.3502 33.575 20.6502 32.1677 21.4503L27.2521 24.2303L27.1415 24.2803Z" fill="url(#paint1_linear)"/>
<path d="M27.262 24.22L23.0199 20L10.4946 32.4601C11.0807 32.979 11.9555 33.0085 12.5755 32.5301L27.262 24.22Z" fill="url(#paint2_linear)"/>
<path d="M27.262 15.78L12.5755 7.47997C11.9592 6.99469 11.0816 7.02 10.4946 7.53997L23.0199 20L27.262 15.78Z" fill="url(#paint3_linear)"/>
<path opacity="0.2" d="M27.1414 24.1299L12.5755 32.3799C11.9805 32.8265 11.1599 32.8265 10.565 32.3799L10.4946 32.4499L10.565 32.5299C11.1599 32.9765 11.9805 32.9765 12.5755 32.5299L27.262 24.2199L27.1414 24.1299Z" fill="black"/>
<path opacity="0.12" d="M10.4944 32.3202C10.1716 31.9235 10.0133 31.4191 10.0522 30.9102V31.0602C10.018 31.5706 10.1877 32.0737 10.5246 32.4602L10.595 32.3902L10.4944 32.3202Z" fill="black"/>
<path opacity="0.12" d="M32.1675 21.2999L27.1414 24.1298L27.2318 24.2198L32.1675 21.4399C32.761 21.1902 33.1698 20.6378 33.2331 19.9999C33.1056 20.577 32.7101 21.0595 32.1675 21.2999Z" fill="black"/>
<path opacity="0.25" d="M12.5753 7.61998L32.1674 18.7C32.7099 18.9404 33.1055 19.4229 33.2329 20C33.1696 19.3621 32.7608 18.8096 32.1674 18.56L12.5753 7.47998C11.178 6.67998 10.022 7.33998 10.022 8.93998V9.08998C10.0521 7.48998 11.178 6.82998 12.5753 7.61998Z" fill="white"/>
<defs>
<linearGradient id="paint0_linear" x1="17.563" y1="-7.55173" x2="-2.36775" y2="-2.21875" gradientUnits="userSpaceOnUse">
<stop stop-color="#00A0FF"/>
<stop offset="0.01" stop-color="#00A1FF"/>
<stop offset="0.26" stop-color="#00BEFF"/>
<stop offset="0.51" stop-color="#00D2FF"/>
<stop offset="0.76" stop-color="#00DFFF"/>
<stop offset="1" stop-color="#00E3FF"/>
</linearGradient>
<linearGradient id="paint1_linear" x1="34.0073" y1="9.79986" x2="9.69054" y2="9.79986" gradientUnits="userSpaceOnUse">
<stop stop-color="#FFE000"/>
<stop offset="0.41" stop-color="#FFBD00"/>
<stop offset="0.78" stop-color="#FFA500"/>
<stop offset="1" stop-color="#FF9C00"/>
</linearGradient>
<linearGradient id="paint2_linear" x1="10.1403" y1="13.5194" x2="-5.78144" y2="40.3918" gradientUnits="userSpaceOnUse">
<stop stop-color="#FF3A44"/>
<stop offset="1" stop-color="#C31162"/>
</linearGradient>
<linearGradient id="paint3_linear" x1="0.718601" y1="4.09889" x2="7.82313" y2="16.0993" gradientUnits="userSpaceOnUse">
<stop stop-color="#32A071"/>
<stop offset="0.07" stop-color="#2DA771"/>
<stop offset="0.48" stop-color="#15CF74"/>
<stop offset="0.8" stop-color="#06E775"/>
<stop offset="1" stop-color="#00F076"/>
</linearGradient>
</defs>
</svg>
