<svg width="74" height="56" viewBox="0 0 74 56" fill="none" xmlns="http://www.w3.org/2000/svg">
<path d="M22.8589 22.8666C22.8589 26.8429 24.3073 30.8697 26.8326 33.9146C29.4883 37.1165 32.9551 38.88 36.5943 38.88C40.233 38.88 43.6956 37.1175 46.3444 33.9173C48.8614 30.8762 50.305 26.8509 50.305 22.8736V19.3703C51.3229 14.9867 51.5364 11.1931 51.5348 8.77349C51.5327 5.64945 51.1929 3.49102 50.8757 2.51282C50.7072 1.99315 50.2018 1.67752 49.6795 1.7281C49.5932 1.72038 49.5047 1.72124 49.4151 1.73396C47.2891 2.03773 44.681 1.51391 41.9196 0.959373C37.4456 0.0610521 32.3909 -0.952578 28.525 1.72767C28.4905 1.72452 28.4558 1.72238 28.4205 1.72238C26.2508 1.72238 24.3244 2.58941 22.9962 4.16372C21.7692 5.61801 21.0935 7.61884 21.0935 9.7977C21.0935 13.3663 22.6115 19.9611 22.8587 21.0115V22.8666H22.8589ZM44.5832 32.4598C42.3767 35.1257 39.5394 36.594 36.5943 36.594C33.6476 36.594 30.8057 35.1241 28.5923 32.4553C26.4014 29.8138 25.145 26.3188 25.145 22.8667V21.4957C25.145 18.6685 27.0435 14.825 27.7641 13.4683C38.0442 12.2936 44.9249 15.1323 46.487 15.8633L48.0188 19.4729V22.8737C48.0188 26.3277 46.7666 29.8217 44.5832 32.4598ZM28.4207 4.00855C28.5035 4.00855 28.5843 3.99926 28.6621 3.9824C28.9762 4.04927 29.3163 3.98512 29.5922 3.77565C32.6744 1.43461 37.1457 2.33236 41.4698 3.20082C43.7839 3.66548 45.9974 4.10986 48.055 4.10986C48.3399 4.10986 48.6218 4.10128 48.9007 4.08299C49.2452 6.01866 49.5234 10.1858 48.7487 15.3401L48.4259 14.5796C48.3253 14.3427 48.148 14.1468 47.9223 14.0233C47.5939 13.8436 39.7525 9.65395 26.9907 11.256C26.6165 11.275 26.259 11.4765 26.0575 11.8251C25.9843 11.9517 24.9897 13.6886 24.1287 15.9099C23.7379 13.7929 23.3797 11.4122 23.3797 9.79741C23.3798 5.79862 25.9115 4.00855 28.4207 4.00855Z" fill="white"/>
<path d="M56.2801 41.4107C56.2555 41.4038 56.2306 41.3978 56.2056 41.3926L49.4046 39.97L47.6066 37.2436C47.5941 37.2243 47.5806 37.2054 47.5669 37.187C47.24 36.7512 46.7423 36.4636 46.2015 36.3978C45.6608 36.3323 45.1086 36.4923 44.6868 36.8374C44.6794 36.8434 44.6719 36.8497 44.6648 36.8558L36.5785 43.8167L28.492 36.8559C28.4847 36.8498 28.4774 36.8437 28.4701 36.8375C28.0483 36.4924 27.4961 36.3323 26.9554 36.3978C26.4146 36.4636 25.9168 36.7512 25.59 37.187C25.5761 37.2054 25.5628 37.2243 25.5503 37.2436L23.7523 39.97L16.9513 41.3926C16.9263 41.3978 16.9014 41.4038 16.8768 41.4107C14.8993 41.9647 13.217 43.1908 12.0116 44.9564C10.9119 46.567 10.3064 48.5114 10.3064 50.4313V52.5805C10.3064 54.4659 11.9853 55.9999 14.049 55.9999H33.9758C33.9772 55.9999 33.9787 56 33.9801 56C33.9817 56 33.9832 55.9999 33.9848 55.9999H39.172C39.1735 55.9999 39.1751 56 39.1767 56C39.1781 56 39.1795 55.9999 39.181 55.9999H59.1078C61.1715 55.9999 62.8504 54.466 62.8504 52.5805V50.4313C62.8504 48.5112 62.2448 46.567 61.1452 44.9564C59.9401 43.1909 58.2576 41.9648 56.2801 41.4107ZM45.9005 38.8089L47.3196 40.9608L41.64 48.77L38.2578 45.3879L45.9005 38.8089ZM35.8286 51.437H37.3283L37.7837 53.7139H35.3732L35.8286 51.437ZM37.7215 48.5245C37.7215 48.9009 37.4922 49.1507 37.3405 49.1507H35.8163C35.6646 49.1507 35.4352 48.9009 35.4352 48.5245V48.0846L36.5783 46.9415L37.7214 48.0846V48.5245H37.7215ZM27.2565 38.8089L34.8991 45.3878L31.5169 48.7699L25.8373 40.9606L27.2565 38.8089ZM12.5924 52.5805V50.4313C12.5924 47.7348 14.2636 44.537 17.4582 43.622L23.9575 42.2626L30.4548 51.1964C30.6514 51.4668 30.9565 51.6374 31.2898 51.6637C31.3197 51.6662 31.3496 51.6672 31.3793 51.6672C31.6812 51.6672 31.9723 51.5476 32.1874 51.3324L33.5204 49.9994C33.5809 50.1111 33.6473 50.2183 33.7205 50.3197L33.0418 53.7136H14.049C13.2594 53.7137 12.5924 53.1947 12.5924 52.5805ZM60.5645 52.5805C60.5645 53.1947 59.8975 53.7137 59.1081 53.7137H40.1152L39.4365 50.3199C39.5096 50.2184 39.5761 50.1113 39.6365 49.9995L40.9695 51.3325C41.1847 51.5477 41.4757 51.6673 41.7776 51.6673C41.8074 51.6673 41.8372 51.6662 41.8671 51.6639C42.2004 51.6377 42.5055 51.467 42.7021 51.1965L49.1994 42.2627L55.6987 43.6221C58.8933 44.5372 60.5645 47.735 60.5645 50.4315V52.5805Z" fill="white"/>
<path d="M9.16829 25.0109C9.16829 27.7881 10.1133 30.3944 11.8292 32.3496C13.5709 34.3341 15.8968 35.4271 18.3783 35.4271C20.2388 35.4271 22.03 34.8061 23.5584 33.6314C24.059 33.2468 24.1528 32.5291 23.768 32.0285C23.3833 31.528 22.666 31.434 22.1652 31.8188C21.0399 32.6837 19.7304 33.1409 18.3783 33.1409C14.5604 33.1409 11.4543 29.4938 11.4543 25.0109V24.339C11.4543 22.5324 12.2015 20.1408 12.593 19.0111C15.06 18.7925 17.263 19.116 19.0623 19.3818L19.2662 19.4118C19.3227 19.42 19.3787 19.424 19.4342 19.424C19.9917 19.424 20.48 19.0155 20.5636 18.4473C20.6556 17.8227 20.2238 17.2419 19.5992 17.1499L19.3962 17.12C17.2955 16.8097 14.6817 16.4239 11.6285 16.8148C11.6249 16.8152 11.6212 16.8155 11.6176 16.8161C11.6172 16.8161 11.6168 16.8161 11.6163 16.8162C11.6123 16.8167 11.6085 16.8178 11.6045 16.8184C11.5718 16.823 11.5392 16.8285 11.507 16.836C11.4889 16.8401 11.4715 16.8457 11.4537 16.8507C11.4362 16.8557 11.4186 16.86 11.4013 16.8657C11.3789 16.8731 11.3573 16.882 11.3356 16.8907C11.3234 16.8957 11.311 16.9 11.2989 16.9054C11.2767 16.9153 11.2553 16.9263 11.234 16.9376C11.2226 16.9436 11.211 16.949 11.1997 16.9554C11.1801 16.9664 11.1615 16.9786 11.1427 16.9907C11.13 16.999 11.1171 17.0067 11.1047 17.0154C11.089 17.0266 11.074 17.0386 11.059 17.0503C11.0444 17.0617 11.0297 17.0727 11.0157 17.0849C11.0037 17.0952 10.9925 17.1062 10.9811 17.117C10.9652 17.1319 10.9494 17.1466 10.9344 17.1623C10.9251 17.1722 10.9165 17.1826 10.9075 17.1926C10.8919 17.2103 10.8762 17.2278 10.8616 17.2465C10.8531 17.2573 10.8455 17.2689 10.8373 17.2801C10.824 17.2985 10.8105 17.3168 10.7982 17.3362C10.788 17.3521 10.779 17.3689 10.7698 17.3854C10.761 17.4008 10.7517 17.4156 10.7436 17.4317C10.7282 17.4621 10.7142 17.4934 10.7015 17.5251C10.7003 17.5278 10.699 17.5304 10.6979 17.5331C10.6979 17.5332 10.6976 17.534 10.6975 17.5341C10.6965 17.5368 10.6955 17.5394 10.6945 17.542C10.6746 17.593 10.5921 17.8066 10.4746 18.1402C10.3832 17.4134 10.3234 16.7288 10.3234 16.1804C10.3234 13.7098 11.5156 12.6038 12.6973 12.6038C12.7531 12.6038 12.8076 12.5986 12.8613 12.5908C12.9155 12.5987 12.97 12.604 13.0251 12.604C13.2661 12.604 13.509 12.5281 13.7156 12.3711C14.7825 11.5606 16.159 11.2883 18.1779 11.4876C18.8056 11.5502 19.3657 11.0907 19.4279 10.4624C19.4899 9.83429 19.031 9.27461 18.4027 9.21259C16.8535 9.05956 14.6112 9.01899 12.66 10.3188C9.93644 10.3408 8.03735 12.7446 8.03735 16.1805C8.03735 18.5879 8.9864 22.9752 9.16829 23.7939V25.0109Z" fill="white"/>
<path d="M8.00159 45.7148H2.91301C2.55422 45.7148 2.28617 45.5002 2.28617 45.3082V43.8449C2.28617 42.1495 3.3288 40.1413 5.3222 39.5633L9.48474 38.6926L11.6344 41.7938C11.8565 42.114 12.2126 42.2857 12.5749 42.2857C12.7995 42.2857 13.0266 42.2196 13.225 42.082C13.7439 41.7223 13.8729 41.0102 13.5132 40.4914L11.3723 37.4026L12.0045 36.4438L16.4624 39.7722C16.9684 40.15 17.6845 40.046 18.0622 39.5402C18.4399 39.0344 18.3361 38.3181 17.8301 37.9404L12.9373 34.2874C12.5771 34.0038 12.1121 33.8732 11.6562 33.9283C11.1898 33.9849 10.7606 34.233 10.4786 34.6089C10.4648 34.6273 10.4516 34.6462 10.4389 34.6655L9.29756 36.3963L4.81438 37.334C4.78938 37.3393 4.76452 37.3453 4.73994 37.3522C1.62818 38.2238 0 41.2782 0 43.8449V45.3082C0 46.793 1.30683 48.001 2.91301 48.001H8.00159C8.63285 48.001 9.14467 47.4892 9.14467 46.8579C9.14467 46.2266 8.63285 45.7148 8.00159 45.7148Z" fill="white"/>
<path d="M53.7023 10.2789C55.3829 10.3124 57.241 10.6132 59.0381 10.904C60.3958 11.1236 61.6963 11.3321 62.8257 11.4046C62.7858 14.1115 62.6083 16.5457 62.4069 18.5056C62.4046 18.5039 62.4021 18.5025 62.3999 18.5008C62.3819 18.4876 62.3633 18.4753 62.3446 18.4633C62.3358 18.4578 62.3281 18.4515 62.3193 18.4462C62.3094 18.4402 62.2991 18.4346 62.2891 18.4286C62.2878 18.4279 62.2866 18.427 62.2851 18.4263C59.9977 17.0486 57.2254 16.2538 53.8106 15.9977C53.1805 15.95 52.6325 16.4226 52.5852 17.0521C52.5379 17.6816 53.01 18.2303 53.6396 18.2774C56.5523 18.4959 58.9106 19.1355 60.8364 20.2281C61.1072 20.8667 61.7031 22.4828 61.7031 24.3388V25.0106C61.7031 29.4937 58.5971 33.1407 54.7792 33.1407C53.4271 33.1407 52.1177 32.6834 50.9923 31.8186C50.4918 31.4339 49.7741 31.5278 49.3894 32.0283C49.0048 32.5288 49.0985 33.2464 49.599 33.6312C51.1275 34.806 52.9187 35.4268 54.7792 35.4268C57.2608 35.4268 59.5867 34.3339 61.3282 32.3494C63.0441 30.394 63.9892 27.7878 63.9892 25.0106V23.7752C64.1498 22.9208 65.0935 17.5994 65.1188 10.5663C65.1481 10.4536 65.161 10.3346 65.1538 10.212C65.118 9.60201 64.6094 9.13306 64.0058 9.13748C63.9962 9.1372 63.9867 9.13606 63.977 9.13606C63.9549 9.13606 63.9333 9.1382 63.9114 9.13934C62.8052 9.19678 61.1526 8.93016 59.403 8.6471C57.6153 8.3579 55.5892 8.02998 53.7479 7.99326C53.1126 7.97797 52.5948 8.48207 52.5821 9.11319C52.5696 9.74432 53.0712 10.2663 53.7023 10.2789Z" fill="white"/>
<path d="M68.4177 37.3522C68.3931 37.3453 68.3682 37.3393 68.3432 37.334L63.86 36.3963L62.7187 34.6655C62.706 34.6464 62.6927 34.6275 62.679 34.6089C62.397 34.233 61.9678 33.9849 61.5014 33.9284C61.0452 33.8732 60.5805 34.0037 60.2203 34.2874L55.3275 37.9404C54.8215 38.3181 54.7177 39.0344 55.0954 39.5402C55.4732 40.0461 56.1895 40.15 56.6952 39.7722L61.1531 36.4439L61.7853 37.4026L59.6442 40.4912C59.2846 41.01 59.4136 41.7222 59.9324 42.0818C60.131 42.2194 60.3579 42.2856 60.5825 42.2856C60.9448 42.2856 61.301 42.1138 61.523 41.7936L63.6727 38.6924L67.8353 39.5632C69.8285 40.1412 70.8713 42.1496 70.8713 43.8447V45.308C70.8713 45.4999 70.6032 45.7147 70.2445 45.7147H65.1559C64.5246 45.7147 64.0128 46.2265 64.0128 46.8578C64.0128 47.489 64.5246 48.0009 65.1559 48.0009H70.2445C71.8506 48.0009 73.1575 46.7929 73.1575 45.308V43.8447C73.1575 41.2784 71.5293 38.2239 68.4177 37.3522Z" fill="white"/>
</svg>
