<svg width="53" height="56" viewBox="0 0 53 56" fill="none" xmlns="http://www.w3.org/2000/svg">
<path d="M13.0965 22.7245C13.0965 26.643 14.4868 30.6122 16.9108 33.6142C19.4553 36.7655 22.7745 38.5011 26.2568 38.5011C29.7384 38.5011 33.0534 36.7666 35.5913 33.617C38.0072 30.6187 39.3928 26.6511 39.3928 22.7314V19.2241C41.9629 11.0652 41.0091 4.17617 40.173 2.27609C40.1717 2.27325 40.1701 2.27051 40.1688 2.26767C40.1608 2.25017 40.152 2.23322 40.143 2.21627C40.1381 2.20708 40.1335 2.19768 40.1282 2.18882C40.1197 2.17406 40.1103 2.15995 40.1009 2.14573C40.094 2.13523 40.0872 2.12462 40.0799 2.11445C40.0719 2.10341 40.0631 2.09302 40.0547 2.08241C40.045 2.07027 40.0354 2.05791 40.0251 2.04632C40.0182 2.03866 40.0109 2.03156 40.0038 2.02412C39.9911 2.01078 39.9784 1.99754 39.9649 1.98519C39.9588 1.97961 39.9524 1.97447 39.946 1.96911C39.931 1.95609 39.916 1.94319 39.9003 1.93116C39.8936 1.92613 39.8866 1.92164 39.8797 1.91683C39.8639 1.90557 39.848 1.8943 39.8315 1.88413C39.823 1.87888 39.814 1.87429 39.8054 1.86937C39.7901 1.86062 39.7747 1.85176 39.759 1.844C39.7479 1.83853 39.7365 1.83394 39.7252 1.8289C39.7111 1.82267 39.6972 1.81622 39.6829 1.81075C39.67 1.80583 39.6567 1.80189 39.6436 1.79763C39.6301 1.79314 39.6167 1.78855 39.6029 1.78472C39.5898 1.78111 39.5765 1.77849 39.5631 1.77554C39.5487 1.77225 39.5343 1.76875 39.5196 1.76624C39.5076 1.76416 39.4954 1.76307 39.4833 1.76154C39.4667 1.75935 39.4502 1.75716 39.4333 1.75596C39.423 1.7553 39.4128 1.7553 39.4024 1.75487C39.3833 1.75421 39.3644 1.75377 39.3453 1.75432C39.3362 1.75454 39.327 1.75552 39.3178 1.75607C39.2978 1.75738 39.2778 1.75891 39.2577 1.76154C39.2546 1.76197 39.2517 1.76186 39.2486 1.76241C37.0545 2.07585 34.3982 1.54237 31.5859 0.977729C26.8703 0.0308606 21.9978 -0.945098 18.188 1.77171C18.1307 1.7599 18.0715 1.75366 18.0107 1.75366C14.1032 1.75366 11.3743 4.99169 11.3743 9.62805C11.3743 13.2121 12.8823 19.8995 13.0965 20.8313V22.7245ZM34.2288 32.5191C32.0297 35.2483 29.1985 36.7513 26.2569 36.7513C23.3138 36.7513 20.4781 35.2468 18.2723 32.515C16.095 29.8187 14.8463 26.2502 14.8463 22.7246V21.7281C14.8463 18.6115 16.6136 14.4029 17.2145 13.0624C23.2597 12.3521 28.0754 13.0617 31.0788 13.7955C33.7133 14.4392 35.442 15.21 36.0652 15.5126L37.6431 19.267V22.7316C37.6431 26.2588 36.3987 29.8264 34.2288 32.5191ZM18.0107 3.50348C18.0951 3.50348 18.1766 3.4909 18.2539 3.46848C18.51 3.54186 18.7961 3.49878 19.0246 3.32522C22.237 0.885098 26.8145 1.80441 31.2414 2.69331C33.564 3.15975 35.7852 3.60573 37.8367 3.60573C38.1528 3.60573 38.4645 3.59381 38.7723 3.57106C39.3105 5.5127 39.8207 10.4087 38.3536 16.4411L37.5541 14.5387C37.4779 14.3574 37.3428 14.207 37.1706 14.1118C36.8477 13.9336 29.1198 9.76322 16.5123 11.3851C16.5101 11.3853 16.5081 11.386 16.5059 11.3862C16.4895 11.3885 16.4733 11.3919 16.4571 11.395C16.4445 11.3974 16.4316 11.3995 16.4191 11.4025C16.4088 11.4049 16.3988 11.4084 16.3886 11.4112C16.2776 11.4422 16.1765 11.4937 16.0891 11.5615C16.0326 11.6051 15.9808 11.6556 15.9355 11.7135C15.9342 11.7152 15.9326 11.7168 15.9312 11.7184C15.922 11.7303 15.9138 11.7432 15.9051 11.7558C15.8971 11.7672 15.8889 11.7785 15.8815 11.7902C15.8759 11.7991 15.8711 11.8088 15.8657 11.8179C15.8563 11.8342 15.8469 11.8506 15.8386 11.8676C15.8378 11.8692 15.8368 11.8707 15.8361 11.8723C15.7684 12.0125 14.7781 14.0796 14.0074 16.6073C13.5716 14.2952 13.1241 11.4718 13.1241 9.62805C13.1241 5.39721 15.5784 3.50348 18.0107 3.50348Z" fill="white"/>
<path d="M50.8233 45.2859C49.6437 43.558 47.9986 42.3585 46.066 41.8172C46.0471 41.8119 46.0281 41.8073 46.009 41.8033L39.0293 40.3434L37.1505 37.4946C37.1409 37.4799 37.1307 37.4654 37.1201 37.4513C36.8355 37.0717 36.4022 36.8212 35.931 36.764C35.4602 36.707 34.9793 36.8464 34.6121 37.1468C34.6064 37.1514 34.6008 37.1561 34.5954 37.1608L26.2482 44.3461L17.901 37.1608C17.8955 37.1561 17.8899 37.1514 17.8843 37.1468C17.5172 36.8464 17.0363 36.7069 16.5655 36.764C16.0945 36.8211 15.6611 37.0717 15.3763 37.4513C15.3657 37.4654 15.3556 37.4798 15.3459 37.4946L13.4671 40.3434L6.48744 41.8033C6.4683 41.8073 6.44927 41.8119 6.43046 41.8172C4.49779 42.3586 2.85274 43.558 1.67315 45.2859C0.594171 46.8662 0 48.7736 0 50.6565V52.8266C0 54.5763 1.56991 55.9999 3.49974 55.9999H23.621C23.6221 55.9999 23.6232 56 23.6242 56C23.6255 56 23.6267 55.9999 23.6279 55.9999H28.8683C28.8695 55.9999 28.8707 56 28.8719 56C28.873 56 28.8741 55.9999 28.8752 55.9999H48.9965C50.9263 55.9999 52.4962 54.5763 52.4962 52.8266V50.6565C52.4964 48.7736 51.9022 46.8662 50.8233 45.2859ZM35.7192 38.5024L37.4333 41.1016L31.3926 49.4077L29.492 47.5073C29.4918 47.507 29.4916 47.5068 29.4914 47.5066L27.5336 45.5488L35.7192 38.5024ZM25.3733 51.6252H27.1232C27.1758 51.6252 27.228 51.6231 27.2798 51.6202L27.8059 54.2502H24.6907L25.2167 51.6202C25.2685 51.6231 25.3207 51.6252 25.3733 51.6252ZM27.9981 49.0004C27.9981 49.4828 27.6056 49.8753 27.1232 49.8753H25.3733C24.8908 49.8753 24.4984 49.4828 24.4984 49.0004V48.4878L26.2483 46.7379L27.9982 48.4878V49.0004H27.9981ZM16.7773 38.5024L24.963 45.5487L23.0051 47.5065C23.0049 47.5067 23.0047 47.5069 23.0045 47.5071L21.104 49.4076L15.0632 41.1015L16.7773 38.5024ZM1.74981 52.8266V50.6565C1.74981 47.8262 3.51024 44.4678 6.87524 43.5097L13.6243 42.098L20.291 51.2648C20.4414 51.4717 20.6749 51.6024 20.9301 51.6224C20.9529 51.6241 20.9758 51.625 20.9985 51.625C21.2296 51.625 21.4524 51.5335 21.6171 51.3688L22.9581 50.0278C23.1013 50.3631 23.3127 50.6623 23.5743 50.909L22.9061 54.2499H3.49974C2.53493 54.2501 1.74981 53.6115 1.74981 52.8266ZM50.7466 52.8266C50.7466 53.6115 49.9616 54.2501 48.9967 54.2501H29.5904L28.9221 50.9091C29.1837 50.6625 29.3951 50.3632 29.5383 50.0279L30.8793 51.3689C31.044 51.5336 31.2668 51.6251 31.4979 51.6251C31.5206 51.6251 31.5435 51.6242 31.5663 51.6225C31.8215 51.6025 32.055 51.4718 32.2054 51.2649L38.8721 42.0981L45.6212 43.5098C48.9863 44.4679 50.7466 47.8263 50.7466 50.6566V52.8266Z" fill="white"/>
</svg>
