<svg width="46" height="56" viewBox="0 0 46 56" fill="none" xmlns="http://www.w3.org/2000/svg">
<path d="M41.125 0H4.375C1.96263 0 0 1.96263 0 4.375V51.625C0 54.0374 1.96263 56 4.375 56H41.125C43.5374 56 45.5 54.0374 45.5 51.625V4.375C45.5 1.96263 43.5374 0 41.125 0ZM43.75 51.625C43.75 53.0724 42.5725 54.25 41.125 54.25H4.375C2.92753 54.25 1.75 53.0724 1.75 51.625V4.375C1.75 2.92764 2.92753 1.75 4.375 1.75H41.125C42.5725 1.75 43.75 2.92764 43.75 4.375V51.625Z" fill="white"/>
<path d="M17.5 11.375H33.25C33.7332 11.375 34.125 10.9832 34.125 10.5C34.125 10.0168 33.7332 9.625 33.25 9.625H17.5C17.0168 9.625 16.625 10.0168 16.625 10.5C16.625 10.9832 17.0168 11.375 17.5 11.375Z" fill="white"/>
<path d="M39.375 13.125H17.5C17.0168 13.125 16.625 13.5168 16.625 14C16.625 14.4832 17.0168 14.875 17.5 14.875H39.375C39.8582 14.875 40.25 14.4832 40.25 14C40.25 13.5168 39.8582 13.125 39.375 13.125Z" fill="white"/>
<path d="M17.5 18.375H36.75C37.2332 18.375 37.625 17.9832 37.625 17.5C37.625 17.0168 37.2332 16.625 36.75 16.625H17.5C17.0168 16.625 16.625 17.0168 16.625 17.5C16.625 17.9832 17.0168 18.375 17.5 18.375Z" fill="white"/>
<path d="M13.125 37.625H6.125C5.64178 37.625 5.25 38.0168 5.25 38.5V45.5C5.25 45.9832 5.64178 46.375 6.125 46.375H13.125C13.6082 46.375 14 45.9832 14 45.5V38.5C14 38.0168 13.6082 37.625 13.125 37.625ZM12.25 44.625H7V39.375H12.25V44.625Z" fill="white"/>
<path d="M17.5 39.375H33.25C33.7332 39.375 34.125 38.9832 34.125 38.5C34.125 38.0168 33.7332 37.625 33.25 37.625H17.5C17.0168 37.625 16.625 38.0168 16.625 38.5C16.625 38.9832 17.0168 39.375 17.5 39.375Z" fill="white"/>
<path d="M39.375 41.125H17.5C17.0168 41.125 16.625 41.5168 16.625 42C16.625 42.4832 17.0168 42.875 17.5 42.875H39.375C39.8582 42.875 40.25 42.4832 40.25 42C40.25 41.5168 39.8582 41.125 39.375 41.125Z" fill="white"/>
<path d="M36.75 44.625H17.5C17.0168 44.625 16.625 45.0168 16.625 45.5C16.625 45.9832 17.0168 46.375 17.5 46.375H36.75C37.2332 46.375 37.625 45.9832 37.625 45.5C37.625 45.0168 37.2332 44.625 36.75 44.625Z" fill="white"/>
<path d="M13.125 23.625H6.125C5.64178 23.625 5.25 24.0168 5.25 24.5V31.5C5.25 31.9832 5.64178 32.375 6.125 32.375H13.125C13.6082 32.375 14 31.9832 14 31.5V24.5C14 24.0168 13.6082 23.625 13.125 23.625ZM12.25 30.625H7V25.375H12.25V30.625Z" fill="white"/>
<path d="M17.5 25.375H33.25C33.7332 25.375 34.125 24.9832 34.125 24.5C34.125 24.0168 33.7332 23.625 33.25 23.625H17.5C17.0168 23.625 16.625 24.0168 16.625 24.5C16.625 24.9832 17.0168 25.375 17.5 25.375Z" fill="white"/>
<path d="M39.375 27.125H17.5C17.0168 27.125 16.625 27.5168 16.625 28C16.625 28.4832 17.0168 28.875 17.5 28.875H39.375C39.8582 28.875 40.25 28.4832 40.25 28C40.25 27.5168 39.8582 27.125 39.375 27.125Z" fill="white"/>
<path d="M17.5 32.375H36.75C37.2332 32.375 37.625 31.9832 37.625 31.5C37.625 31.0168 37.2332 30.625 36.75 30.625H17.5C17.0168 30.625 16.625 31.0168 16.625 31.5C16.625 31.9832 17.0168 32.375 17.5 32.375Z" fill="white"/>
<path d="M14.2562 8.13124L12.7625 9.62498H8.74997C8.26675 9.62498 7.87497 10.0168 7.87497 10.5C7.87497 10.9832 8.26675 11.375 8.74997 11.375H11.0125L8.74997 13.6375L5.86871 10.7562C5.52702 10.4147 4.97304 10.4147 4.63135 10.7562C4.28955 11.098 4.28955 11.6519 4.63135 11.9937L5.24997 12.6124V17.5C5.24997 17.9832 5.64175 18.375 6.12497 18.375H13.125C13.6082 18.375 14 17.9832 14 17.5V14.8748C14 14.3915 13.6082 13.9998 13.125 13.9998C12.6418 13.9998 12.25 14.3915 12.25 14.8748V16.625H6.99997V14.3624L8.13124 15.4937C8.30208 15.6646 8.52597 15.75 8.74997 15.75C8.97397 15.75 9.19786 15.6646 9.36871 15.4937L15.4937 9.36871C15.8355 9.02692 15.8355 8.47304 15.4937 8.13124C15.152 7.78967 14.5979 7.78967 14.2562 8.13124Z" fill="white"/>
</svg>
